Coordinates
version=1
nRows=16
nColumns=34
inDegrees=no

Units are S.I. units (second, meters, Newtons, ...)
If the header above contains a line with 'inDegrees', this indicates whether rotational values are in degrees (yes) or radians (no).

endheader
time	pelvis_tilt	pelvis_list	pelvis_rotation	pelvis_tx	pelvis_ty	pelvis_tz	hip_flexion_r	hip_adduction_r	hip_rotation_r	knee_angle_r	ankle_angle_r	subtalar_angle_r	mtp_angle_r	hip_flexion_l	hip_adduction_l	hip_rotation_l	knee_angle_l	ankle_angle_l	subtalar_angle_l	mtp_angle_l	lumbar_extension	lumbar_bending	lumbar_rotation	arm_flex_r	arm_add_r	arm_rot_r	elbow_flex_r	pro_sup_r	arm_flex_l	arm_add_l	arm_rot_l	elbow_flex_l	pro_sup_l
1.61	-0.444932	-0.12188	0.0489765	-0.268171	0.787493	-0.645259	1.37552	-0.0826848	-0.0524374	1.48482	0.33801	-0.279731	-0.104988	1.40007	-0.192487	0.0444696	1.50302	0.4785	-0.00585901	-0.105479	-0.378835	0.112694	-0.0519429	1.80508	-0.478086	0.558073	1.68599	1.47087	2.03611	-0.263121	0.629777	1.57171	1.55462
1.62	-0.452699	-0.11962	0.0561591	-0.260875	0.803497	-0.646886	1.34775	-0.0873093	-0.04871	1.44095	0.310495	-0.290401	-0.104984	1.36888	-0.185287	0.0346366	1.45397	0.455904	-0.0172827	-0.105474	-0.340177	0.115599	-0.0705533	1.93042	-0.462698	0.588845	1.68853	1.47143	2.13052	-0.252943	0.659135	1.58827	1.54081
1.63	-0.461915	-0.117481	0.0630595	-0.253108	0.821258	-0.648585	1.31611	-0.0927953	-0.0466038	1.38787	0.278503	-0.29931	-0.104979	1.33356	-0.178195	0.0245215	1.39503	0.428754	-0.0274518	-0.105469	-0.300017	0.118049	-0.0852979	2.05005	-0.446051	0.616231	1.68594	1.47198	2.21615	-0.239563	0.681244	1.59951	1.52493
1.64	-0.471325	-0.1152	0.0695355	-0.244786	0.840916	-0.650389	1.27868	-0.0990285	-0.0468118	1.32398	0.240747	-0.304752	-0.104974	1.292	-0.171087	0.0134671	1.32446	0.395284	-0.03541	-0.105464	-0.259179	0.119715	-0.0951493	2.16197	-0.428813	0.640384	1.67946	1.47253	2.2905	-0.222961	0.695772	1.60657	1.50746
1.65	-0.479528	-0.112478	0.075495	-0.235832	0.8626	-0.652324	1.23355	-0.105849	-0.0503684	1.24781	0.195718	-0.304635	-0.10497	1.2422	-0.163776	0.000534036	1.24075	0.353345	-0.0398286	-0.105459	-0.218753	0.120291	-0.0995768	2.26449	-0.41123	0.661382	1.67034	1.47309	2.35176	-0.20373	0.702776	1.61096	1.48931
1.66	-0.485176	-0.108993	0.0809444	-0.226187	0.886391	-0.654412	1.1792	-0.113091	-0.0586424	1.15834	0.14184	-0.296693	-0.104965	1.18262	-0.155967	-0.0154708	1.14287	0.300601	-0.0391167	-0.105455	-0.179946	0.119529	-0.0986887	2.3563	-0.393153	0.679119	1.65979	1.47364	2.399	-0.183036	0.70278	1.61433	1.47179
1.67	-0.48721	-0.104438	0.0859917	-0.215844	0.912218	-0.65665	1.11481	-0.120606	-0.0732418	1.05524	0.0777361	-0.278814	-0.104961	1.11259	-0.147256	-0.0359123	1.03071	0.234873	-0.0316451	-0.10545	-0.143889	0.11724	-0.0932189	2.43649	-0.37424	0.693347	1.64899	1.47419	2.43232	-0.162415	0.696791	1.61825	1.45651
1.68	-0.485062	-0.0985594	0.090815	-0.204899	0.939851	-0.658991	1.04063	-0.12826	-0.0958195	0.939285	0.00258687	-0.249463	-0.104956	1.03264	-0.137192	-0.062162	0.905355	0.154624	-0.0160565	-0.105445	-0.111429	0.113288	-0.0843812	2.50465	-0.354235	0.703821	1.63908	1.47475	2.45279	-0.143507	0.686229	1.62394	1.44514
1.69	-0.478768	-0.0912196	0.0956163	-0.193548	0.968983	-0.661373	0.958179	-0.135931	-0.127783	0.812602	-0.0834365	-0.208141	-0.104951	0.944712	-0.125375	-0.0953383	0.769508	0.0595637	0.00838767	-0.10544	-0.0829848	0.107595	-0.0736548	2.56086	-0.333177	0.71046	1.63112	1.4753	2.46231	-0.127789	0.672788	1.63213	1.43917
1.7	-0.468972	-0.0824466	0.100577	-0.182075	0.999245	-0.663729	0.870248	-0.143505	-0.169926	0.678902	-0.17877	-0.155782	-0.104947	0.852081	-0.111579	-0.135979	0.627581	-0.0487858	0.041488	-0.105435	-0.0585225	0.10017	-0.0625589	2.60582	-0.311466	0.71345	1.62603	1.47586	2.46334	-0.116406	0.658258	1.64306	1.4397
1.71	-0.456826	-0.0724579	0.10582	-0.170832	1.03024	-0.665999	0.780733	-0.150893	-0.222032	0.543477	-0.28022	-0.09496	-0.104942	0.759102	-0.0958611	-0.183707	0.485586	-0.166737	0.0818968	-0.10543	-0.0376165	0.0911457	-0.0524503	2.64074	-0.289788	0.713256	1.62453	1.47641	2.45871	-0.110076	0.64432	1.65658	1.44716
1.72	-0.443781	-0.0616527	0.111384	-0.160194	1.06157	-0.668134	0.694183	-0.158038	-0.282525	0.412865	-0.383049	-0.0297933	-0.104938	0.670649	-0.0786297	-0.236972	0.350608	-0.288531	0.127094	-0.105425	-0.0195879	0.0808206	-0.0443674	2.66727	-0.268959	0.710564	1.62705	1.47696	2.45123	-0.109068	0.632349	1.67232	1.46112
1.73	-0.431246	-0.0505422	0.117208	-0.150471	1.09284	-0.670111	0.615197	-0.164885	-0.348274	0.294143	-0.481528	0.034555	-0.104933	0.591382	-0.060648	-0.292944	0.229863	-0.40703	0.173616	-0.105421	-0.00363476	0.0696934	-0.0389342	2.68726	-0.249747	0.706202	1.6338	1.47752	2.44343	-0.113252	0.623269	1.68992	1.4802
1.74	-0.420443	-0.0398226	0.123078	-0.14188	1.12351	-0.67191	0.547678	-0.17135	-0.414681	0.193874	-0.569963	0.0927612	-0.104928	0.524924	-0.0429281	-0.347656	0.129474	-0.51503	0.217565	-0.105416	0.0109316	0.0584289	-0.0363472	2.70261	-0.23272	0.701051	1.64471	1.47807	2.43731	-0.122198	0.617471	1.70917	1.50226
1.75	-0.412229	-0.0302122	0.128669	-0.134655	1.15328	-0.6735	0.494177	-0.177213	-0.476175	0.116916	-0.643986	0.140483	-0.104924	0.473204	-0.0266061	-0.396441	0.0532404	-0.606906	0.255336	-0.105411	0.0245907	0.0478625	-0.0363926	2.71499	-0.218171	0.695976	1.65951	1.47863	2.43415	-0.135282	0.614813	1.73003	1.52477
1.76	-0.406919	-0.0223578	0.133574	-0.128871	1.18199	-0.674866	0.455499	-0.182102	-0.527171	0.06539	-0.701552	0.175484	-0.104919	0.436194	-0.012719	-0.434699	0.0018379	-0.679915	0.284359	-0.105406	0.0375348	0.038872	-0.0385243	2.72573	-0.206124	0.69178	1.67778	1.47918	2.43453	-0.151763	0.614675	1.75256	1.5456
